<?xml version="1.0" standalone="no"?>
<!DOCTYPE svg PUBLIC "-//W3C//DTD SVG 20010904//EN"
 "http://www.w3.org/TR/2001/REC-SVG-20010904/DTD/svg10.dtd">
<svg version="1.0" xmlns="http://www.w3.org/2000/svg"
 width="512.000000pt" height="512.000000pt" viewBox="0 0 512.000000 512.000000"
 preserveAspectRatio="xMidYMid meet">
<metadata>
Created by potrace 1.11, written by Peter Selinger 2001-2013
</metadata>
<g transform="translate(0.000000,512.000000) scale(0.100000,-0.100000)"
fill="#000000" stroke="none">
<path d="M3401 4602 c212 -124 375 -281 520 -501 224 -338 343 -708 365 -1128
4 -73 7 -133 8 -133 1 0 94 20 208 44 114 23 211 46 215 49 22 23 -71 459
-137 637 -166 451 -490 819 -901 1026 l-89 44 -127 0 -128 0 66 -38z"/>
<path d="M2537 4621 l-48 -6 78 -70 c454 -406 703 -1044 703 -1802 0 -104 2
-114 18 -109 9 2 43 10 75 16 39 8 68 21 90 41 45 42 180 105 251 118 79 14
184 13 276 -3 118 -21 114 -24 107 118 -22 430 -171 828 -451 1204 -152 205
-331 366 -508 457 l-86 45 -229 -2 c-125 0 -250 -4 -276 -7z"/>
<path d="M1809 4560 c229 -191 434 -569 577 -1068 88 -307 134 -608 134 -878
0 -136 0 -136 23 -132 12 3 131 27 265 54 l242 49 0 50 c0 27 -5 127 -10 220
-25 409 -99 719 -245 1023 -137 284 -316 508 -541 678 l-71 54 -217 0 -217 0
60 -50z"/>
<path d="M1178 4241 c-445 -267 -735 -610 -832 -982 -14 -51 -26 -107 -28
-123 l-3 -30 805 -303 c443 -166 814 -305 824 -309 18 -6 19 -1 12 117 -35
623 -172 1089 -416 1418 -59 79 -186 212 -239 250 l-27 19 -96 -57z"/>
<path d="M291 2643 c0 -10 57 -377 127 -816 l127 -798 669 -315 c368 -173 670
-313 672 -312 8 9 106 1630 98 1637 -8 8 -1677 621 -1689 621 -3 0 -5 -8 -4
-17z"/>
<path d="M3710 2548 c-41 -44 -15 -128 39 -128 37 0 61 28 61 71 0 71 -57 103
-100 57z"/>
<path d="M4462 2425 c-118 -24 -217 -47 -221 -51 -8 -9 -194 -1514 -188 -1520
4 -5 361 87 369 94 6 6 298 1492 298 1515 0 12 -36 6 -258 -38z"/>
<path d="M3970 2262 c-53 -78 -153 -180 -202 -206 -21 -12 -44 -17 -59 -13
-31 8 -132 69 -215 131 l-66 49 -74 -13 c-41 -7 -77 -16 -79 -20 -5 -9 -117
-1551 -113 -1556 3 -3 680 176 686 181 6 5 172 1479 170 1496 -2 11 -20 -8
-48 -49z"/>
<path d="M2751 2090 c-161 -33 -295 -60 -296 -62 -6 -7 -87 -1579 -82 -1585 7
-6 547 126 560 137 5 4 33 331 62 726 30 396 56 747 60 782 3 34 2 62 -2 61
-4 0 -140 -27 -302 -59z"/>
</g>
</svg>
